<?xml version="1.0" encoding="utf-8"?>
<!-- Generator: Adobe Illustrator 19.1.0, SVG Export Plug-In . SVG Version: 6.00 Build 0)  -->
<svg version="1.1" id="Capa_1" xmlns="http://www.w3.org/2000/svg" xmlns:xlink="http://www.w3.org/1999/xlink" x="0px" y="0px"
	 viewBox="0 0 38 38" enable-background="new 0 0 38 38" xml:space="preserve">
<g>
	<ellipse fill="#4969B0" cx="19" cy="19" rx="19" ry="19"/>
	<path fill="#FFFFFF" d="M25,20.9v-6.2l-3.4-1.2v-2.1l-2.3-1.5V7.7h-0.7v2.2l-2.3,1.5v2.1L13,14.7v6.2c-2,0.3-4.8,1-4.8,2.3
		c0,1.8,5.4,2.7,10.8,2.7c4.3,0,8.5-0.6,10.1-1.7v1.4c0,0.9-3.9,2.1-10.1,2.1S8.9,26.4,8.9,25.6H8.2c0,1.8,5.4,2.7,10.8,2.7
		c5.4,0,10.8-0.9,10.8-2.7v-2.4C29.8,21.9,27,21.2,25,20.9 M21.6,14.2l2.8,0.9v7.4l0.3,0c2,0.2,2.6,0.5,2.7,0.6
		C27,23.4,25,23.8,21.6,24L21.6,14.2L21.6,14.2z M19,10.4l1.9,1.3v12.3c-0.6,0-1.3,0.1-1.8,0.1c-0.6,0-1.5-0.1-2.1-0.1V11.7L19,10.4
		z M13.3,22.6l0.3,0v-7.4l2.8-0.9V24c-3.4-0.2-5.2-0.5-5.6-0.8C11,23.1,11.5,22.8,13.3,22.6 M19,25.3c-6.3,0-10.1-1.2-10.1-2.1
		c0-0.4,1.1-1.1,4.1-1.6V22c-2.5,0.3-2.9,0.8-2.9,1.2c0,0.7,1.9,1.2,5.6,1.4l0,0c0,0,1.8,0.1,3.5,0.1c1.7,0,3-0.1,3-0.1v0
		c2.9-0.1,5.9-0.5,5.9-1.4c0-0.4-0.4-0.9-3.1-1.2v-0.4c3,0.5,4.1,1.2,4.1,1.6C29.1,24,25.3,25.3,19,25.3"/>
</g>
</svg>
