<?xml version="1.0" encoding="utf-8"?>
<!-- Generator: Adobe Illustrator 16.0.0, SVG Export Plug-In . SVG Version: 6.00 Build 0)  -->
<!DOCTYPE svg PUBLIC "-//W3C//DTD SVG 1.0//EN" "http://www.w3.org/TR/2001/REC-SVG-20010904/DTD/svg10.dtd">
<svg version="1.0" id="Capa_1" xmlns="http://www.w3.org/2000/svg" xmlns:xlink="http://www.w3.org/1999/xlink" x="0px" y="0px"
	 width="217px" height="65.667px" viewBox="0 0 217 65.667" enable-background="new 0 0 217 65.667" xml:space="preserve">
<path fill="#4868AF" d="M19.463,36.173c-2.112-0.561-3.957-0.855-5.614-0.855c-5.24,0-8.235,3.129-8.235,7.646
	c0,4.652,3.102,7.753,7.941,7.753c1.631,0,3.796-0.32,6.283-0.988l0.347,1.657c-2.326,0.722-4.679,1.097-6.71,1.097
	c-5.989,0-9.866-3.797-9.866-9.492c0-5.694,3.877-9.491,10.026-9.491c2.112,0,4.224,0.321,6.176,0.909L19.463,36.173z"/>
<path fill="#4868AF" d="M35.56,39.996v12.085h-1.818v-1.097c-1.55,1.016-2.914,1.498-4.625,1.498c-3.689,0-6.148-2.647-6.148-6.632
	c0.027-3.902,2.379-6.522,6.256-6.522C31.55,39.328,33.074,39.515,35.56,39.996 M24.787,45.905c0,2.968,1.764,5,4.545,5
	c1.47,0,2.754-0.402,4.41-1.498v-8.154c-1.55-0.241-2.807-0.348-4.276-0.348C26.39,40.905,24.787,42.964,24.787,45.905"/>
<path fill="#4868AF" d="M39.493,49.728c1.765,0.775,3.688,1.23,5.187,1.23c1.871,0,3.235-0.748,3.235-2.139
	c0-1.577-1.818-1.871-4.251-2.38c-2.675-0.562-4.064-1.391-4.064-3.422c0-2.326,1.845-3.663,4.893-3.663
	c1.631,0,3.476,0.401,4.76,0.855l-0.482,1.444c-1.497-0.481-3.154-0.803-4.411-0.803c-1.897,0-2.968,0.723-2.968,2.085
	c0,1.284,1.123,1.578,3.289,2.086c2.94,0.643,4.946,1.203,4.946,3.637c0,2.54-2.085,3.822-5.054,3.822
	c-1.711,0-3.77-0.48-5.508-1.229L39.493,49.728z"/>
<path fill="#4868AF" d="M64.918,39.996v12.085h-1.817v-1.097c-1.55,1.016-2.914,1.498-4.625,1.498c-3.69,0-6.149-2.647-6.149-6.632
	c0.027-3.902,2.379-6.522,6.256-6.522C60.909,39.328,62.433,39.515,64.918,39.996 M54.145,45.905c0,2.968,1.764,5,4.545,5
	c1.47,0,2.754-0.402,4.411-1.498v-8.154c-1.55-0.241-2.808-0.348-4.277-0.348C55.749,40.905,54.145,42.964,54.145,45.905"/>
<polygon fill="#FECB0D" points="76.845,52.081 74.947,52.081 74.947,35.639 67.754,35.639 67.754,33.9 84.037,33.9 84.037,35.639 
	76.845,35.639 "/>
<path fill="#FECB0D" d="M96.15,45.852c0,3.983-2.808,6.656-6.765,6.656s-6.764-2.673-6.764-6.656c0-3.957,2.807-6.604,6.764-6.604
	S96.15,41.895,96.15,45.852 M94.279,45.852c0-2.969-2.006-4.919-4.894-4.919c-2.86,0-4.892,1.95-4.892,4.919
	c0,2.995,2.031,5,4.892,5C92.273,50.852,94.279,48.847,94.279,45.852"/>
<polygon fill="#FECB0D" points="103.371,44.996 108.583,39.729 110.883,39.729 105.403,45.237 111.739,52.081 109.493,52.081 
	104.306,46.68 101.632,46.68 101.632,52.081 99.815,52.081 99.815,33.099 101.632,33.099 101.632,44.996 "/>
<path fill="#FECB0D" d="M125.268,45.184c0,0.614,0,0.828-0.08,1.417h-10.293c0.294,2.54,2.059,4.224,4.785,4.224
	c1.578,0,2.861-0.267,4.545-0.695l0.294,1.497c-1.63,0.481-3.021,0.856-4.892,0.856c-4.226,0-6.685-2.754-6.685-6.604
	c0-3.957,2.674-6.55,6.416-6.55C122.835,39.328,125.242,41.574,125.268,45.184 M114.841,45.156h8.769
	c-0.053-2.7-1.736-4.331-4.224-4.331C116.766,40.825,115.055,42.536,114.841,45.156"/>
<path fill="#FECB0D" d="M140.75,44.381v7.7h-1.818v-7.272c0-2.379-1.337-3.796-3.556-3.796c-1.363,0-2.914,0.079-4.599,0.374v10.694
	h-1.817V39.996c1.817-0.4,4.544-0.668,6.764-0.668C138.852,39.328,140.75,41.227,140.75,44.381"/>
<path fill="#FECB0D" d="M197.682,43.313v1.255c7.785,0.922,8.886,2.223,8.886,3.493c0,2.942-10.636,3.959-19.558,4.293
	c0,0-6.173,0.289-6.813,0.288s-6.927-0.303-6.927-0.303c-12.619-0.509-19.006-1.946-19.006-4.278c0-1.272,1.039-2.575,8.382-3.489
	v-1.244c-8.717,1.434-11.938,3.58-11.938,4.733c0,2.518,11.219,6.027,29.488,6.027c18.271,0,29.488-3.51,29.488-6.027
	C209.685,46.896,206.448,44.746,197.682,43.313"/>
<path fill="#4868AF" d="M197.682,41.37v-18l-9.934-3.408v-6.211l-6.623-4.396V3h-1.923v6.354l-6.622,4.396v6.211l-9.935,3.408
	v18.009c-5.694,0.913-13.859,2.887-13.859,6.684c0,5.22,15.802,7.951,31.41,7.951c12.377,0,24.844-1.725,29.488-5.037v4.075
	c0,2.517-11.218,6.024-29.488,6.024c-18.27,0-29.487-3.508-29.487-6.024h-1.923c0,5.218,15.802,7.948,31.41,7.948
	c15.609,0,31.41-2.73,31.41-7.948v-6.989C211.607,44.264,203.473,42.292,197.682,41.37 M187.749,21.995l8.012,2.746v21.547
	l0.856,0.094c5.86,0.635,7.487,1.397,7.9,1.618c-1.206,0.806-6.773,1.97-16.769,2.398V21.995z M180.165,11.023l5.661,3.759v35.835
	c-1.782,0.102-3.855,0.198-5.307,0.198c-1.839,0-4.32-0.155-6.017-0.279V14.782L180.165,11.023z M163.715,46.382l0.853-0.098V24.741
	l8.013-2.746v28.39c-10.016-0.446-15.029-1.598-16.225-2.352C156.854,47.704,158.503,46.973,163.715,46.382 M180.197,54.089
	c-18.27,0-29.487-3.51-29.487-6.026c0-1.154,3.22-3.3,11.937-4.735v1.245c-7.343,0.913-8.382,2.216-8.382,3.49
	c0,2.156,5.469,3.548,16.276,4.146l-0.024,0.021c0,0,5.33,0.401,10.141,0.401s8.78-0.354,8.78-0.354v-0.03
	c8.313-0.425,17.131-1.507,17.131-4.186c0-1.272-1.101-2.572-8.886-3.495v-1.253c8.765,1.431,12.003,3.582,12.003,4.748
	C209.685,50.579,198.467,54.089,180.197,54.089"/>
</svg>
