<?xml version="1.0" encoding="utf-8"?>
<!-- Generator: Adobe Illustrator 16.0.0, SVG Export Plug-In . SVG Version: 6.00 Build 0)  -->
<!DOCTYPE svg PUBLIC "-//W3C//DTD SVG 1.0//EN" "http://www.w3.org/TR/2001/REC-SVG-20010904/DTD/svg10.dtd">
<svg version="1.0" id="Capa_1" xmlns="http://www.w3.org/2000/svg" xmlns:xlink="http://www.w3.org/1999/xlink" x="0px" y="0px"
	 width="469.697px" height="142.151px" viewBox="0 0 469.697 142.151" enable-background="new 0 0 469.697 142.151"
	 xml:space="preserve">
<path fill="#FFFFFF" d="M39.062,77.363c-4.67-1.241-8.75-1.892-12.416-1.892c-11.588,0-18.211,6.918-18.211,16.91
	c0,10.289,6.858,17.146,17.562,17.146c3.606,0,8.396-0.71,13.896-2.188l0.768,3.666c-5.146,1.596-10.348,2.425-14.842,2.425
	C12.573,113.432,4,105.035,4,92.44c0-12.593,8.573-20.989,22.172-20.989c4.672,0,9.342,0.71,13.66,2.011L39.062,77.363z"/>
<path fill="#FFFFFF" d="M74.662,85.819v26.725h-4.021v-2.424c-3.43,2.246-6.445,3.312-10.229,3.312c-8.161,0-13.6-5.854-13.6-14.664
	c0.059-8.633,5.263-14.428,13.834-14.428C65.793,84.34,69.163,84.755,74.662,85.819 M50.834,98.886
	c0,6.563,3.901,11.058,10.052,11.058c3.252,0,6.09-0.888,9.756-3.312V88.598c-3.43-0.531-6.209-0.769-9.461-0.769
	C54.382,87.829,50.834,92.382,50.834,98.886"/>
<path fill="#FFFFFF" d="M83.357,107.341c3.903,1.715,8.159,2.72,11.471,2.72c4.14,0,7.154-1.655,7.154-4.729
	c0-3.488-4.021-4.14-9.401-5.263c-5.913-1.24-8.986-3.074-8.986-7.567c0-5.146,4.078-8.102,10.819-8.102
	c3.606,0,7.687,0.888,10.524,1.893l-1.064,3.193c-3.311-1.065-6.977-1.773-9.756-1.773c-4.197,0-6.563,1.596-6.563,4.61
	c0,2.839,2.483,3.489,7.272,4.612c6.503,1.419,10.938,2.661,10.938,8.041c0,5.617-4.611,8.456-11.174,8.456
	c-3.785,0-8.338-1.064-12.182-2.72L83.357,107.341z"/>
<path fill="#FFFFFF" d="M139.591,85.819v26.725h-4.021v-2.424c-3.429,2.246-6.443,3.312-10.228,3.312
	c-8.161,0-13.601-5.854-13.601-14.664c0.06-8.633,5.264-14.428,13.836-14.428C130.722,84.34,134.092,84.755,139.591,85.819
	 M115.763,98.886c0,6.563,3.902,11.058,10.051,11.058c3.252,0,6.092-0.888,9.756-3.312V88.598c-3.429-0.531-6.207-0.769-9.459-0.769
	C119.311,87.829,115.763,92.382,115.763,98.886"/>
<polygon fill="#FECB0D" points="165.964,112.544 161.767,112.544 161.767,76.182 145.86,76.182 145.86,72.338 181.87,72.338 
	181.87,76.182 165.964,76.182 "/>
<path fill="#FECB0D" d="M208.657,98.768c0,8.81-6.205,14.723-14.957,14.723s-14.959-5.913-14.959-14.723
	c0-8.75,6.207-14.604,14.959-14.604S208.657,90.018,208.657,98.768 M204.521,98.768c0-6.563-4.436-10.879-10.82-10.879
	c-6.326,0-10.82,4.315-10.82,10.879c0,6.623,4.494,11.057,10.82,11.057C200.085,109.824,204.521,105.391,204.521,98.768"/>
<polygon fill="#FECB0D" points="224.628,96.876 236.157,85.228 241.243,85.228 229.122,97.408 243.134,112.545 238.167,112.545 
	226.696,100.601 220.784,100.601 220.784,112.545 216.765,112.545 216.765,70.563 220.784,70.563 220.784,96.876 "/>
<path fill="#FECB0D" d="M273.056,97.29c0,1.359,0,1.833-0.178,3.133h-22.764c0.65,5.617,4.555,9.342,10.584,9.342
	c3.488,0,6.326-0.591,10.053-1.536l0.648,3.311c-3.605,1.064-6.68,1.893-10.818,1.893c-9.344,0-14.781-6.091-14.781-14.604
	c0-8.751,5.912-14.487,14.189-14.487C267.675,84.34,272.997,89.307,273.056,97.29 M249.997,97.23h19.393
	c-0.117-5.972-3.842-9.579-9.342-9.579C254.253,87.651,250.47,91.437,249.997,97.23"/>
<path fill="#FECB0D" d="M307.296,95.517v17.027h-4.021V96.461c0-5.262-2.955-8.396-7.863-8.396c-3.016,0-6.445,0.178-10.17,0.828
	v23.65h-4.021V85.819c4.021-0.887,10.053-1.479,14.959-1.479C303.097,84.34,307.296,88.539,307.296,95.517"/>
<path fill="#FECB0D" d="M433.204,93.156v2.772c17.217,2.04,19.65,4.916,19.65,7.729c0,6.506-23.52,8.756-43.252,9.495
	c0,0-13.652,0.637-15.068,0.635c-1.416-0.001-15.32-0.67-15.32-0.67c-27.906-1.125-42.031-4.305-42.031-9.46
	c0-2.817,2.297-5.698,18.537-7.719v-2.753c-19.277,3.174-26.398,7.919-26.398,10.472c0,5.566,24.809,13.33,65.213,13.33
	s65.215-7.764,65.215-13.33C459.749,101.08,452.589,96.322,433.204,93.156"/>
<path fill="#FFFFFF" d="M433.204,88.856V49.051l-21.971-7.538V27.777l-14.646-9.724V4h-4.252v14.054l-14.646,9.724v13.735
	l-21.971,7.538v39.826c-12.592,2.021-30.648,6.383-30.648,14.78c0,11.544,34.943,17.585,69.465,17.585
	c27.373,0,54.941-3.813,65.215-11.14v9.012c0,5.566-24.811,13.324-65.215,13.324s-65.213-7.758-65.213-13.324h-4.252
	c0,11.539,34.943,17.579,69.465,17.579s69.465-6.04,69.465-17.579v-15.457C463.999,95.257,446.009,90.897,433.204,88.856
	 M411.233,46.008l17.719,6.074v47.652l1.896,0.206c12.959,1.403,16.557,3.091,17.473,3.58c-2.67,1.781-14.98,4.353-37.088,5.302
	V46.008z M394.462,21.743l12.521,8.313v79.251c-3.943,0.225-8.529,0.438-11.736,0.438c-4.066,0-9.553-0.342-13.309-0.615V30.057
	L394.462,21.743z M358.083,99.94l1.887-0.216V52.082l17.719-6.074v62.785c-22.148-0.987-33.236-3.531-35.881-5.199
	C342.911,102.865,346.558,101.246,358.083,99.94 M394.534,116.986c-40.404,0-65.213-7.763-65.213-13.329
	c0-2.553,7.121-7.299,26.396-10.471v2.752c-16.238,2.021-18.535,4.902-18.535,7.719c0,4.77,12.096,7.845,35.994,9.171l-0.053,0.048
	c0,0,11.789,0.886,22.426,0.886c10.639,0,19.418-0.781,19.418-0.781v-0.066c18.385-0.938,37.887-3.333,37.887-9.257
	c0-2.813-2.434-5.688-19.65-7.728v-2.774c19.385,3.167,26.545,7.924,26.545,10.502C459.749,109.224,434.938,116.986,394.534,116.986
	"/>
</svg>
